<?xml version="1.0" standalone="no"?>
<!DOCTYPE svg PUBLIC "-//W3C//DTD SVG 20010904//EN"
 "http://www.w3.org/TR/2001/REC-SVG-20010904/DTD/svg10.dtd">
<svg version="1.0" xmlns="http://www.w3.org/2000/svg"
 width="800.000000pt" height="800.000000pt" viewBox="0 0 800.000000 800.000000"
 preserveAspectRatio="xMidYMid meet">
<metadata>
Created by potrace 1.11, written by Peter Selinger 2001-2013
</metadata>
<g transform="translate(0.000000,800.000000) scale(0.100000,-0.100000)"
fill="#000000" stroke="none">
<path d="M3320 6265 l-685 -1184 -362 -1 -362 0 -15 -22 c-14 -20 -16 -98 -16
-652 l0 -629 -66 -114 -66 -113 -333 0 c-320 0 -335 -1 -345 -19 -6 -13 -10
-217 -10 -595 l0 -575 -525 -907 c-289 -499 -524 -908 -522 -910 2 -2 1798 -7
3992 -10 3701 -7 3988 -6 3982 9 -6 15 -667 1167 -978 1704 l-129 221 36 59
c68 113 103 284 85 414 -48 346 -300 577 -663 607 l-82 7 -42 70 c-47 78 -50
85 -31 85 19 0 47 33 47 55 0 9 -104 186 -231 392 l-230 375 19 22 c10 11 108
117 216 234 155 169 196 219 196 241 0 49 -9 51 -219 51 l-196 1 -127 -133
c-69 -73 -128 -131 -131 -128 -2 3 -123 212 -268 465 -677 1181 -1244 2165
-1249 2165 -3 0 -313 -533 -690 -1185z m554 -412 c-7 -21 -13 -64 -14 -95 l0
-58 130 0 130 0 0 73 c0 49 -5 80 -16 95 l-15 22 65 0 65 0 -15 -27 c-21 -42
-20 -390 2 -421 l15 -22 -60 0 -61 0 10 26 c6 14 10 63 10 110 l0 84 -131 0
-131 0 4 -94 c2 -58 9 -100 17 -110 12 -14 7 -16 -48 -16 -58 0 -61 1 -51 19
13 26 14 418 0 426 -6 3 -12 -1 -15 -9 -3 -9 -7 -24 -10 -33 -4 -12 -8 -14
-17 -5 -7 7 -36 12 -66 12 l-54 0 4 -188 c2 -142 6 -193 17 -205 12 -16 8 -17
-48 -17 -58 0 -61 1 -51 19 6 12 10 97 10 206 l0 187 -57 -4 c-32 -2 -65 -8
-74 -12 -15 -6 -15 -3 -6 33 l11 41 232 0 232 0 -14 -37z m646 -3 c0 -37 -2
-40 -19 -30 -11 5 -47 10 -80 10 l-61 0 0 -65 0 -65 60 0 60 0 0 -32 0 -33
-60 3 -60 4 0 -80 c0 -74 2 -80 23 -86 40 -11 117 -6 154 9 20 8 37 14 39 12
2 -2 -2 -20 -8 -40 l-11 -37 -144 0 c-139 0 -143 1 -133 19 6 12 10 99 10 213
0 159 -3 198 -16 216 l-15 22 130 0 131 0 0 -40z m-1832 -835 c169 -40 301
-153 352 -300 78 -227 -22 -469 -234 -569 -102 -49 -152 -56 -381 -56 l-205 0
0 -165 0 -165 -140 0 -140 0 0 635 0 635 343 0 c268 0 356 -4 405 -15z m822
-620 l0 -635 -140 0 -140 0 0 635 0 635 140 0 140 0 0 -635z m769 235 c134
-219 248 -397 253 -394 4 3 8 183 8 400 l0 394 140 0 140 0 0 -635 0 -636
-156 3 -156 3 -238 389 c-131 213 -243 393 -249 399 -8 8 -11 -99 -11 -391 l0
-403 -142 3 -143 3 -3 633 -2 632 157 0 158 0 244 -400z m1033 135 l3 -265
245 265 245 265 174 0 175 0 -31 -32 c-16 -18 -118 -129 -226 -246 l-195 -212
220 -358 c121 -196 229 -372 240 -389 l20 -33 -165 0 -164 0 -173 280 c-95
154 -176 280 -180 280 -4 0 -48 -45 -99 -100 l-91 -100 0 -180 0 -180 -140 0
-140 0 0 635 0 635 140 0 140 0 2 -265z m-1287 -1230 c82 -21 188 -73 262
-128 102 -76 185 -195 235 -337 29 -81 36 -255 14 -354 -56 -249 -254 -453
-504 -517 -92 -23 -249 -25 -342 -4 -224 53 -423 238 -496 461 -25 78 -29 104
-29 209 0 205 56 339 204 485 97 97 186 149 303 180 93 24 268 27 353 5z
m-1947 -162 l-3 -128 -340 -2 -340 -2 -3 -145 -3 -146 278 -2 278 -3 0 -125 0
-125 -277 -3 -278 -2 0 -230 0 -230 -140 0 -140 0 0 635 0 635 485 0 486 0 -3
-127z m407 -381 l0 -502 328 0 327 0 0 -130 0 -130 -470 0 -470 0 0 635 0 636
143 -3 142 -3 0 -503z m2465 237 c80 -149 150 -271 155 -271 6 -1 75 121 155
270 l145 271 159 1 c128 0 157 -3 153 -13 -3 -8 -109 -200 -236 -427 l-231
-413 0 -208 0 -209 -145 0 -145 0 0 209 0 209 -231 413 c-127 227 -233 419
-236 426 -4 10 28 13 153 13 l159 0 145 -271z m1520 248 c179 -53 343 -182
413 -327 49 -101 67 -177 67 -285 0 -175 -57 -314 -179 -436 -86 -85 -150
-125 -266 -165 -80 -28 -82 -28 -382 -32 l-303 -4 0 637 0 637 298 -5 c232 -3
309 -8 352 -20z m-4957 -334 c-15 -27 -35 -61 -45 -78 l-18 -30 0 78 0 77 45
0 46 0 -28 -47z m2250 -1348 c14 -6 17 -20 17 -71 l0 -65 -47 28 c-39 22 -61
28 -133 31 -159 8 -261 -43 -319 -159 -27 -54 -31 -73 -31 -143 0 -68 4 -90
29 -141 35 -75 112 -147 184 -172 59 -21 213 -23 261 -4 l28 11 -4 120 c-4
104 -7 124 -26 150 l-23 30 86 0 85 0 0 -190 c0 -104 4 -190 8 -190 11 0 46
39 60 66 33 63 252 626 252 646 0 13 -5 29 -12 36 -9 9 8 12 78 12 l90 0 129
-317 c148 -368 165 -404 201 -432 l27 -21 -119 0 c-86 1 -114 3 -101 11 26 15
21 43 -25 166 l-43 113 -147 0 -146 0 -32 -82 c-52 -138 -57 -164 -35 -188
l19 -21 -129 1 c-72 1 -157 -3 -190 -9 -88 -16 -261 -14 -330 4 -132 35 -232
114 -283 223 -23 50 -27 70 -27 157 1 132 25 197 104 276 102 101 224 141 411
135 63 -2 123 -7 133 -11z m1472 4 c33 -5 100 -10 149 -9 60 0 95 -4 110 -13
12 -8 58 -75 103 -148 45 -74 88 -143 96 -154 14 -18 20 -11 96 104 84 127 95
159 64 193 -15 17 -12 18 84 18 l101 0 -144 -217 -144 -218 0 -131 c0 -123 2
-133 25 -168 l24 -36 -112 0 c-79 1 -107 4 -95 11 27 15 38 74 38 203 l0 118
-116 187 c-110 176 -157 241 -176 241 -4 0 -8 -29 -8 -64 l0 -64 -62 26 c-36
14 -92 27 -129 30 -120 8 -208 -38 -264 -139 -27 -49 -30 -63 -30 -144 0 -82
3 -97 33 -157 38 -77 93 -130 160 -152 87 -30 215 -15 315 35 20 11 37 17 37
15 0 -3 -12 -32 -27 -66 -19 -44 -35 -66 -57 -77 -41 -21 -203 -29 -278 -14
-124 26 -245 115 -288 214 -31 69 -43 170 -30 251 37 242 250 373 525 325z
m-2245 -69 l0 -70 -32 20 c-41 25 -104 34 -173 25 l-55 -6 0 -110 0 -110 95 3
95 3 0 -58 c0 -54 -1 -57 -20 -47 -10 5 -53 13 -95 17 l-75 6 0 -137 c0 -75
-1 -139 -2 -143 -2 -5 40 -12 92 -16 110 -10 180 1 235 39 20 13 38 24 40 24
2 0 -9 -34 -23 -75 l-27 -75 -243 0 -243 0 20 26 c20 26 21 38 21 359 0 320
-1 333 -21 358 l-20 27 208 3 c114 1 211 3 216 5 4 1 7 -29 7 -68z m-813 48
c-33 -26 -37 -67 -37 -367 l0 -298 98 -7 c110 -8 160 0 227 38 39 21 46 23 41
8 -4 -9 -17 -43 -29 -74 l-22 -58 -239 0 -239 0 19 21 c18 20 19 43 22 333 2
171 0 326 -3 344 -3 18 -15 42 -26 53 -19 19 -18 19 93 19 92 0 109 -2 95 -12z"/>
<path d="M2220 4560 l0 -222 198 4 c196 3 197 3 249 32 73 40 106 91 111 170
5 71 -15 121 -65 168 -56 54 -91 62 -300 66 l-193 4 0 -222z m200 155 c0 -10
-133 -235 -142 -241 -4 -3 -8 51 -8 120 l0 126 75 0 c41 0 75 -2 75 -5z"/>
<path d="M3766 3290 c-67 -17 -155 -71 -206 -127 -125 -136 -152 -331 -69
-495 131 -260 456 -314 653 -108 62 65 90 115 112 203 53 203 -65 435 -256
508 -63 24 -177 33 -234 19z"/>
<path d="M6100 2865 l0 -377 148 4 c134 3 152 5 204 30 185 87 264 292 187
493 -30 80 -114 164 -196 196 -48 19 -82 24 -200 27 l-143 4 0 -377z m481 154
c38 -76 18 -63 -27 16 -20 35 -23 46 -10 36 9 -8 26 -32 37 -52z"/>
<path d="M4209 1543 l-55 -138 53 -3 c29 -2 79 -2 111 0 l59 3 -51 132 c-28
72 -54 134 -57 138 -3 3 -31 -56 -60 -132z"/>
</g>
</svg>
